<svg width="20" height="20" viewBox="0 0 20 20" fill="none" xmlns="http://www.w3.org/2000/svg">
<path d="M11.75 9.2H6.5M8.25 12.4H6.5M13.5 6H6.5M17 5.84V14.16C17 15.5041 17 16.1762 16.7139 16.6896C16.4622 17.1412 16.0607 17.5083 15.5667 17.7384C15.0052 18 14.2701 18 12.8 18H7.2C5.72986 18 4.99479 18 4.43327 17.7384C3.93935 17.5083 3.53778 17.1412 3.28611 16.6896C3 16.1762 3 15.5041 3 14.16V5.84C3 4.49587 3 3.82381 3.28611 3.31042C3.53778 2.85883 3.93935 2.49168 4.43327 2.26158C4.99479 2 5.72986 2 7.2 2H12.8C14.2701 2 15.0052 2 15.5667 2.26158C16.0607 2.49168 16.4622 2.85883 16.7139 3.31042C17 3.82381 17 4.49587 17 5.84Z" stroke="#202020" stroke-linecap="round" stroke-linejoin="round"/>
</svg>
