<svg width="20" height="20" viewBox="0 0 20 20" fill="none" xmlns="http://www.w3.org/2000/svg">
<path d="M7.6 17V11.4747C7.6 11.0565 7.6 10.8474 7.6872 10.6877C7.7639 10.5472 7.88628 10.433 8.03681 10.3614C8.20794 10.28 8.43196 10.28 8.88 10.28H11.12C11.568 10.28 11.7921 10.28 11.9632 10.3614C12.1137 10.433 12.2361 10.5472 12.3128 10.6877C12.4 10.8474 12.4 11.0565 12.4 11.4747V17M2 8.41333L9.232 3.35093C9.50741 3.15815 9.64511 3.06176 9.79635 3.0246C9.92984 2.9918 10.0702 2.9918 10.2037 3.0246C10.3549 3.06176 10.4926 3.15815 10.768 3.35093L18 8.41333M3.6 7.29333V14.6107C3.6 15.447 3.6 15.8652 3.77439 16.1846C3.92779 16.4656 4.17256 16.6941 4.47362 16.8372C4.81588 17 5.26392 17 6.16 17H13.84C14.7361 17 15.1841 17 15.5264 16.8372C15.8274 16.6941 16.0722 16.4656 16.2256 16.1846C16.4 15.8652 16.4 15.447 16.4 14.6107V7.29333L11.536 3.88853C10.9852 3.50296 10.7098 3.31018 10.4073 3.23586C10.1403 3.17027 9.85968 3.17027 9.59269 3.23586C9.29022 3.31018 9.01482 3.50296 8.464 3.88853L3.6 7.29333Z" stroke="#757575" stroke-linecap="round" stroke-linejoin="round"/>
</svg>
