<svg width="20" height="20" viewBox="0 0 20 20" fill="none" xmlns="http://www.w3.org/2000/svg">
<path d="M16.4 16.6378H10.6054M3 17L7.01945 15.4541C7.27654 15.3552 7.40509 15.3057 7.52535 15.2412C7.63218 15.1838 7.73402 15.1177 7.8298 15.0433C7.93764 14.9596 8.03503 14.8623 8.2298 14.6675L16.4 6.49734C17.2 5.69727 17.2 4.40011 16.4 3.60005C15.5999 2.79998 14.3027 2.79998 13.5027 3.60005L5.33252 11.7702C5.13774 11.965 5.04036 12.0624 4.95667 12.1702C4.88235 12.266 4.81616 12.3678 4.75882 12.4746C4.69426 12.5949 4.64482 12.7235 4.54594 12.9805L3 17ZM3 17L4.49074 13.1241C4.59741 12.8468 4.65075 12.7081 4.74224 12.6446C4.82219 12.5891 4.92112 12.5681 5.01672 12.5863C5.12612 12.6072 5.23119 12.7123 5.44131 12.9224L7.07762 14.5587C7.28774 14.7688 7.3928 14.8739 7.4137 14.9833C7.43195 15.0789 7.41096 15.1778 7.35545 15.2578C7.29192 15.3493 7.15325 15.4026 6.87589 15.5093L3 17Z" stroke="#202020" stroke-linecap="round" stroke-linejoin="round"/>
</svg>
