<svg width="20" height="20" viewBox="0 0 20 20" fill="none" xmlns="http://www.w3.org/2000/svg">
<path d="M5.32141 15.2069C5.74723 14.2036 6.74145 13.5 7.9 13.5H12.1C13.2586 13.5 14.2528 14.2036 14.6786 15.2069M12.8 8.25C12.8 9.7964 11.5464 11.05 10 11.05C8.4536 11.05 7.2 9.7964 7.2 8.25C7.2 6.7036 8.4536 5.45 10 5.45C11.5464 5.45 12.8 6.7036 12.8 8.25ZM17 10C17 13.866 13.866 17 10 17C6.13401 17 3 13.866 3 10C3 6.13401 6.13401 3 10 3C13.866 3 17 6.13401 17 10Z" stroke="#202020" stroke-linecap="round" stroke-linejoin="round"/>
</svg>
